<svg xmlns="http://www.w3.org/2000/svg" viewBox="0 0 100 100" width="100" height="100">
  <!-- ظلال أرضية -->
  <ellipse cx="42" cy="80" rx="20" ry="2" fill="rgba(0,0,0,0.1)" />
  <ellipse cx="68" cy="80" rx="26" ry="2.5" fill="rgba(0,0,0,0.12)" />

  <!-- الحقيبة الخلفية (زرقاء - عمودية) -->
  <g>
    <rect x="20" y="18" width="38" height="62" rx="3" ry="3" fill="#1E88E5" />
    <rect x="20" y="18" width="38" height="6" fill="#1565C0" rx="2" />
    <line x1="20" y1="24" x2="58" y2="24" stroke="#0D47A1" stroke-width="1.5" />
    <rect x="20" y="48" width="38" height="4" fill="#E63946" opacity="0.9" />
  </g>
  <!-- مقابض الحقيبة الخلفية (نفس اللون الأزرق الداكن) -->
  <path d="M26 18 C26 4, 34 4, 34 18" fill="none" stroke="#1565C0" stroke-width="3.5" stroke-linecap="round" />
  <path d="M42 18 C42 4, 50 4, 50 18" fill="none" stroke="#1565C0" stroke-width="3.5" stroke-linecap="round" />

  <!-- الحقيبة الأمامية (برتقالية - أفقية) -->
  <g>
    <rect x="40" y="38" width="52" height="40" rx="3" ry="3" fill="#FF7043" />
    <rect x="40" y="38" width="52" height="6" fill="#F4511E" rx="2" />
    <line x1="40" y1="44" x2="92" y2="44" stroke="#BF360C" stroke-width="1.5" />
    <rect x="40" y="60" width="52" height="4" fill="#FFCA28" opacity="0.9" />
  </g>
  <!-- مقابض الحقيبة الأمامية (نفس اللون البرتقالي الداكن) -->
  <path d="M46 38 C46 24, 58 24, 58 38" fill="none" stroke="#F4511E" stroke-width="3.5" stroke-linecap="round" />
  <path d="M65 38 C65 24, 77 24, 77 38" fill="none" stroke="#F4511E" stroke-width="3.5" stroke-linecap="round" />

  <!-- إيصال ورقي صغير -->
  <g transform="translate(76, 48) rotate(15)">
    <rect x="0" y="0" width="5" height="11" fill="#FFFFFF" stroke="#D5D8DC" stroke-width="0.5" />
    <line x1="1" y1="3" x2="4" y2="3" stroke="#BDC3C7" stroke-width="0.7" />
    <line x1="1" y1="6" x2="3.5" y2="6" stroke="#BDC3C7" stroke-width="0.7" />
  </g>
</svg>
