<svg xmlns="http://www.w3.org/2000/svg" viewBox="0 0 512 512" width="512" height="512">
  <defs>
    <!-- خلفية برتقالية متدرجة -->
    <linearGradient id="bgGrad" x1="0%" y1="0%" x2="100%" y2="100%">
      <stop offset="0%" style="stop-color:#f97316;stop-opacity:1" />
      <stop offset="100%" style="stop-color:#ea580c;stop-opacity:1" />
    </linearGradient>
    <!-- إطار أزرق داكن متدرج -->
    <linearGradient id="blueGrad" x1="0%" y1="0%" x2="100%" y2="100%">
      <stop offset="0%" style="stop-color:#0f172a;stop-opacity:1" />
      <stop offset="100%" style="stop-color:#1e293b;stop-opacity:1" />
    </linearGradient>
    <filter id="shadow" x="-10%" y="-10%" width="130%" height="130%">
      <feDropShadow dx="0" dy="4" stdDeviation="6" flood-color="#000" flood-opacity="0.3" />
    </filter>
  </defs>

  <!-- خلفية دائرية -->
  <circle cx="256" cy="256" r="248" fill="url(#bgGrad)" stroke="url(#blueGrad)" stroke-width="14" filter="url(#shadow)" />

  <!-- ====== الكيس الأول (أزرق داكن) ====== -->
  <g transform="translate(180, 230)">
    <!-- مقبضي الكيس -->
    <path d="M-18,-45 C-18,-65 -8,-65 -8,-45" fill="none" stroke="#0f172a" stroke-width="6" stroke-linecap="round" />
    <path d="M8,-45 C8,-65 18,-65 18,-45" fill="none" stroke="#0f172a" stroke-width="6" stroke-linecap="round" />
    <!-- جسم الكيس -->
    <path d="M-30,-45 L30,-45 L30,25 Q30,40 15,40 L-15,40 Q-30,40 -30,25 Z" fill="#0f172a" />
    <!-- حرف SR -->
    <text x="0" y="5" font-family="Cairo, Arial, sans-serif" font-weight="700" font-size="24"
          fill="#f97316" text-anchor="middle" alignment-baseline="middle">SR</text>
  </g>

  <!-- ====== الكيس الثاني (برتقالي) ====== -->
  <g transform="translate(332, 230)">
    <!-- مقبضي الكيس -->
    <path d="M-18,-45 C-18,-65 -8,-65 -8,-45" fill="none" stroke="#f97316" stroke-width="6" stroke-linecap="round" />
    <path d="M8,-45 C8,-65 18,-65 18,-45" fill="none" stroke="#f97316" stroke-width="6" stroke-linecap="round" />
    <!-- جسم الكيس -->
    <path d="M-30,-45 L30,-45 L30,25 Q30,40 15,40 L-15,40 Q-30,40 -30,25 Z" fill="#f97316" />
    <!-- حرف SR -->
    <text x="0" y="5" font-family="Cairo, Arial, sans-serif" font-weight="700" font-size="24"
          fill="#0f172a" text-anchor="middle" alignment-baseline="middle">SR</text>
  </g>

  <!-- اسم التطبيق أسفل الأيقونة -->
  <text x="256" y="430" font-family="Cairo, Arial, sans-serif" font-weight="600" font-size="36"
        fill="#0f172a" text-anchor="middle" alignment-baseline="middle">أسواق الريادة</text>
</svg>
