<svg xmlns="http://www.w3.org/2000/svg" viewBox="0 0 100 100" width="100" height="100">
  <!-- حقيبة التسوق بنكهة أسواق الرياض -->
  <g>
    <!-- جسم الكيس -->
    <path d="M25 35 L25 80 Q25 90 35 90 L65 90 Q75 90 75 80 L75 35 Z" fill="#C88B5E" />
    <!-- طية الورق العلوية -->
    <path d="M20 35 L80 35 Q85 35 85 30 L85 22 Q85 17 80 17 L20 17 Q15 17 15 22 L15 30 Q15 35 20 35 Z" fill="#C88B5E" />
    <!-- أذرع الحبل -->
    <path d="M30 17 C30 5 42 10 44 17" fill="none" stroke="#F49B9B" stroke-width="4" stroke-linecap="round" />
    <path d="M70 17 C70 5 58 10 56 17" fill="none" stroke="#F49B9B" stroke-width="4" stroke-linecap="round" />
    <!-- ربطة العنق (الفيونكة) -->
    <path d="M47 20 C41 10 34 16 38 22 C41 24 44 22 47 20" fill="#F49B9B" />
    <path d="M53 20 C59 10 66 16 62 22 C59 24 56 22 53 20" fill="#F49B9B" />
    <circle cx="50" cy="18" r="3.5" fill="#F49B9B" />
  </g>
</svg>
