<svg xmlns="http://www.w3.org/2000/svg" viewBox="0 0 100 100" width="100" height="100">
  <!-- الحقيبة الخلفية (يسار) -->
  <!-- المقبض -->
  <path d="M35 25 C35 5, 55 5, 55 25" fill="none" stroke="#7E22CE" stroke-width="5" stroke-linecap="round"/>
  <!-- جسم الحقيبة -->
  <path d="M35 25 L55 25 L65 85 A5 5 0 0 1 60 90 L30 90 A5 5 0 0 1 25 85 Z" fill="#7E22CE"/>

  <!-- الحقيبة الأمامية (يمين) -->
  <!-- جسم الحقيبة -->
  <path d="M50 35 L70 35 L78 75 A5 5 0 0 1 73 80 L45 80 A5 5 0 0 1 40 75 Z" fill="#A855F7"/>
  <!-- المقبض -->
  <path d="M50 35 C50 15, 70 15, 70 35" fill="none" stroke="#A855F7" stroke-width="5" stroke-linecap="round"/>
</svg>
