<svg xmlns="http://www.w3.org/2000/svg" viewBox="0 0 100 100" width="100" height="100">
  <!-- الحقيبة البنية (في الخلف) -->
  <path d="M12,76 L12,28 L24,28 L30,38 L36,28 L48,28 L48,76 Z" fill="#C49A6C" />
  <rect x="12" y="50" width="36" height="5" fill="#E63946" />
  <!-- مقابض الحقيبة البنية -->
  <path d="M12,28 C12,8 24,8 24,28" fill="none" stroke="#FFFFFF" stroke-width="3" stroke-linecap="round" />
  <path d="M36,28 C36,8 48,8 48,28" fill="none" stroke="#FFFFFF" stroke-width="3" stroke-linecap="round" />

  <!-- الحقيبة البنفسجية (في الأمام) -->
  <path d="M38,66 L38,18 L50,18 L56,28 L62,18 L74,18 L74,66 Z" fill="#9B59B6" />
  <rect x="38" y="40" width="36" height="5" fill="#F4D03F" />
  <!-- مقابض الحقيبة البنفسجية -->
  <path d="M38,18 C38,-2 50,-2 50,18" fill="none" stroke="#FFFFFF" stroke-width="3" stroke-linecap="round" />
  <path d="M62,18 C62,-2 74,-2 74,18" fill="none" stroke="#FFFFFF" stroke-width="3" stroke-linecap="round" />
</svg>
